<?xml version="1.0" ?>
<svg xmlns="http://www.w3.org/2000/svg" xmlns:ev="http://www.w3.org/2001/xml-events" xmlns:xlink="http://www.w3.org/1999/xlink" baseProfile="full" height="410px" version="1.1" viewBox="-23.767083444118402 -16.10573279235148 290.0001672282456 198.06146558470297" width="600px">
	<defs/>
	<path class="cls-1" d="M 40.832,126.13 C 30.922,126.03999999999999 24.542,124.08999999999999 23.132,120.1 C 21.852,116.46 24.832,111.57 31.142000000000003,105.97999999999999 C 33.402,113.14999999999999 36.682,119.91 40.832,126.13"/>
	<path class="cls-1" d="M 204.662,68.77 C 203.172,60.78999999999999 200.43200000000002,53.199999999999996 196.642,46.17999999999999 C 207.262,46.10999999999999 214.12199999999999,48.059999999999995 215.59199999999998,52.21999999999999 C 217.052,56.379999999999995 212.952,62.17999999999999 204.66199999999998,68.77 L 204.662,68.77"/>
	<path class="cls-3" d="M 204.662,68.77 C 189.68200000000002,80.69999999999999 161.022,95.21 126.81200000000001,107.28 C 91.87200000000001,119.6 59.84200000000001,126.3 40.83200000000001,126.13 C 36.68200000000001,119.91 33.40200000000001,113.14999999999999 31.14200000000001,105.97999999999999 C 30.23200000000001,103.07999999999998 29.48200000000001,100.10999999999999 28.91200000000001,97.07999999999998 C 28.05200000000001,92.47999999999999 27.60200000000001,87.74999999999999 27.60200000000001,82.91999999999999 C 27.602,37.4 67.532,0.5 116.792,0.5 C 148.152,0.5 175.732,15.46 191.632,38.09 C 193.46200000000002,40.690000000000005 195.132,43.39 196.642,46.18000000000001 C 200.432,53.2 203.172,60.790000000000006 204.662,68.77000000000001 L 204.662,68.77"/>
	<path class="cls-3" d="M 205.922,85.76 C 204.302,129.97 165.022,165.35000000000002 116.792,165.35000000000002 C 91.362,165.35000000000002 68.422,155.51000000000002 52.182,139.74 C 74.662,136.85000000000002 102.592,130.04000000000002 132.042,119.65 C 161.022,109.43 186.692,97.44 205.922,85.76"/>
	<path class="cls-2" d="M 205.922,85.76 C 186.692,97.44 161.022,109.43 132.042,119.65 C 102.592,130.04000000000002 74.662,136.85 52.182,139.74 C 23.962000000000003,143.37 4.312000000000005,140.83 0.9920000000000044,131.41 C -2.0079999999999956,122.89 8.892000000000005,110.39 28.912000000000006,97.08 C 29.482000000000006,100.11 30.232000000000006,103.08 31.142000000000007,105.98 C 24.832000000000008,111.57000000000001 21.852000000000007,116.46000000000001 23.132000000000005,120.10000000000001 C 24.542000000000005,124.09 30.922000000000004,126.04 40.83200000000001,126.13000000000001 C 59.84200000000001,126.30000000000001 91.87200000000001,119.60000000000001 126.81200000000001,107.28 C 161.02200000000002,95.21000000000001 189.68200000000002,80.7 204.662,68.77000000000001 C 212.952,62.18000000000001 217.05200000000002,56.38000000000001 215.592,52.22000000000001 C 214.122,48.06000000000002 207.262,46.110000000000014 196.64200000000002,46.180000000000014 C 195.13200000000003,43.390000000000015 193.46200000000002,40.69000000000001 191.63200000000003,38.09000000000002 C 219.13200000000003,34.710000000000015 238.20200000000003,37.320000000000014 241.47200000000004,46.59000000000002 C 244.84200000000004,56.13000000000002 230.74200000000005,70.68000000000002 205.92200000000003,85.76000000000002 L 205.922,85.76"/>
</svg>
